<svg width="47" height="46" viewBox="0 0 47 46" fill="none" xmlns="http://www.w3.org/2000/svg">
<path d="M18.9 38.3334H28.1C35.7667 38.3334 38.8333 35.2667 38.8333 27.6001V18.4001C38.8333 10.7334 35.7667 7.66675 28.1 7.66675H18.9C11.2333 7.66675 8.16666 10.7334 8.16666 18.4001V27.6001C8.16666 35.2667 11.2333 38.3334 18.9 38.3334Z" stroke="#640EF1" stroke-width="3" stroke-linecap="round" stroke-linejoin="round"/>
<path d="M20.625 32.5834H26.375C31.1667 32.5834 33.0833 30.6667 33.0833 25.8751V20.1251C33.0833 15.3334 31.1667 13.4167 26.375 13.4167H20.625C15.8333 13.4167 13.9167 15.3334 13.9167 20.1251V25.8751C13.9167 30.6667 15.8333 32.5834 20.625 32.5834Z" stroke="#640EF1" stroke-width="3" stroke-linecap="round" stroke-linejoin="round"/>
<path d="M15.8525 7.66659V3.83325" stroke="#640EF1" stroke-width="3" stroke-linecap="round" stroke-linejoin="round"/>
<path d="M23.5 7.66659V3.83325" stroke="#640EF1" stroke-width="3" stroke-linecap="round" stroke-linejoin="round"/>
<path d="M31.1667 7.66659V3.83325" stroke="#640EF1" stroke-width="3" stroke-linecap="round" stroke-linejoin="round"/>
<path d="M38.8333 15.3333H42.6667" stroke="#640EF1" stroke-width="3" stroke-linecap="round" stroke-linejoin="round"/>
<path d="M38.8333 23H42.6667" stroke="#640EF1" stroke-width="3" stroke-linecap="round" stroke-linejoin="round"/>
<path d="M38.8333 30.6667H42.6667" stroke="#640EF1" stroke-width="3" stroke-linecap="round" stroke-linejoin="round"/>
<path d="M31.1667 38.3333V42.1666" stroke="#640EF1" stroke-width="3" stroke-linecap="round" stroke-linejoin="round"/>
<path d="M23.5192 38.3333V42.1666" stroke="#640EF1" stroke-width="3" stroke-linecap="round" stroke-linejoin="round"/>
<path d="M15.8525 38.3333V42.1666" stroke="#640EF1" stroke-width="3" stroke-linecap="round" stroke-linejoin="round"/>
<path d="M4.33334 15.3333H8.16668" stroke="#640EF1" stroke-width="3" stroke-linecap="round" stroke-linejoin="round"/>
<path d="M4.33334 23H8.16668" stroke="#640EF1" stroke-width="3" stroke-linecap="round" stroke-linejoin="round"/>
<path d="M4.33334 30.6667H8.16668" stroke="#640EF1" stroke-width="3" stroke-linecap="round" stroke-linejoin="round"/>
<path d="M23.5 18.5916L21.6983 21.7349C21.2958 22.4249 21.6217 22.9999 22.4267 22.9999H24.5733C25.3783 22.9999 25.7042 23.5749 25.3017 24.2649L23.5 27.4082" stroke="#640EF1" stroke-width="3" stroke-linecap="round" stroke-linejoin="round"/>
</svg>
