<svg width="41" height="40" viewBox="0 0 41 40" fill="none" xmlns="http://www.w3.org/2000/svg">
<path d="M22.5246 32.1116C22.5606 28.4402 21.6298 25.4546 20.4458 25.443C19.2617 25.4314 18.2727 28.3983 18.2369 32.0697C18.201 35.7411 19.1318 38.7268 20.3158 38.7383C21.4998 38.7499 22.4888 35.783 22.5246 32.1116Z" fill="#640EF1"/>
<path d="M15.6576 31.2777C17.6728 28.2086 18.5041 25.1937 17.5144 24.5438C16.5245 23.8939 14.0884 25.855 12.0732 28.9241C10.058 31.9933 9.22669 35.0081 10.2164 35.6581C11.2063 36.308 13.6423 34.3469 15.6576 31.2777Z" fill="#640EF1"/>
<path d="M10.3233 26.8744C13.6781 25.3822 16.0074 23.2955 15.5261 22.2136C15.0449 21.1317 11.9353 21.4643 8.58062 22.9565C5.22593 24.4487 2.89655 26.5354 3.37779 27.6174C3.85902 28.6993 6.96865 28.3666 10.3233 26.8744Z" fill="#640EF1"/>
<path d="M15.1235 19.1796C15.3037 18.0093 12.5079 16.6078 8.87911 16.0492C5.25022 15.4907 2.16243 15.9867 1.9823 17.157C1.80217 18.3273 4.59791 19.7287 8.22678 20.2873C11.8556 20.8459 14.9434 20.3499 15.1235 19.1796Z" fill="#640EF1"/>
<path d="M16.4264 16.3916C17.2106 15.5044 15.616 12.8141 12.8649 10.3826C10.1137 7.95121 7.24784 6.6994 6.4637 7.58665C5.67956 8.47392 7.27412 11.1642 10.0253 13.5957C12.7764 16.0271 15.6423 17.2789 16.4264 16.3916Z" fill="#640EF1"/>
<path d="M19.0211 14.7623C20.1605 14.4399 20.2737 11.3145 19.274 7.78164C18.2743 4.24877 16.5402 1.64618 15.4009 1.96859C14.2615 2.29099 14.1483 5.41631 15.148 8.94921C16.1477 12.482 17.8818 15.0847 19.0211 14.7623Z" fill="#640EF1"/>
<path d="M26.0667 9.05912C27.1359 5.54664 27.0844 2.4197 25.9516 2.07489C24.8188 1.73007 23.0338 4.29796 21.9646 7.81043C20.8954 11.3229 20.947 14.4498 22.0798 14.7946C23.2126 15.1394 24.9976 12.5716 26.0667 9.05912Z" fill="#640EF1"/>
<path d="M31.1011 13.8052C33.8993 11.428 35.5462 8.76935 34.7795 7.86698C34.0128 6.96458 31.123 8.16015 28.3249 10.5373C25.5267 12.9145 23.8799 15.5731 24.6466 16.4755C25.4132 17.3779 28.3031 16.1824 31.1011 13.8052Z" fill="#640EF1"/>
<path d="M32.7658 20.5215C36.405 20.0346 39.2278 18.6885 39.0707 17.5149C38.9138 16.3413 35.8363 15.7845 32.1971 16.2713C28.558 16.7582 25.7351 18.1043 25.8922 19.278C26.0492 20.4516 29.1266 21.0084 32.7658 20.5215Z" fill="#640EF1"/>
<path d="M37.4603 27.9528C37.9628 26.8806 35.675 24.7484 32.3504 23.1903C29.0258 21.6322 25.9234 21.2384 25.4209 22.3106C24.9184 23.3828 27.2062 25.515 30.5308 27.0731C33.8554 28.6311 36.9579 29.025 37.4603 27.9528Z" fill="#640EF1"/>
<path d="M30.4671 35.8639C31.4695 35.2337 30.6978 32.203 28.7435 29.0947C26.7892 25.9865 24.3922 23.9778 23.3898 24.608C22.3874 25.2382 23.1591 28.269 25.1134 31.3772C27.0678 34.4854 29.4647 36.4942 30.4671 35.8639Z" fill="#640EF1"/>
</svg>
