<svg width="47" height="46" viewBox="0 0 47 46" fill="none" xmlns="http://www.w3.org/2000/svg">
<path d="M25.2633 4.33167L37.7408 11.0592C39.1975 11.845 39.1975 14.0875 37.7408 14.8733L25.2633 21.6008C24.1517 22.195 22.8483 22.195 21.7367 21.6008L9.25917 14.8733C7.80251 14.0875 7.80251 11.845 9.25917 11.0592L21.7367 4.33167C22.8483 3.73751 24.1517 3.73751 25.2633 4.33167Z" stroke="#640EF1" stroke-width="3" stroke-linecap="round" stroke-linejoin="round"/>
<path d="M7.41916 19.4158L19.015 25.2233C20.4525 25.9516 21.3725 27.4275 21.3725 29.0375V40.0008C21.3725 41.5917 19.705 42.6075 18.2867 41.8983L6.69083 36.0908C5.25333 35.3625 4.33333 33.8867 4.33333 32.2767V21.3133C4.33333 19.7225 6.00083 18.7066 7.41916 19.4158Z" stroke="#640EF1" stroke-width="3" stroke-linecap="round" stroke-linejoin="round"/>
<path d="M39.5808 19.4158L27.985 25.2233C26.5475 25.9516 25.6275 27.4275 25.6275 29.0375V40.0008C25.6275 41.5917 27.295 42.6075 28.7133 41.8983L40.3092 36.0908C41.7467 35.3625 42.6667 33.8867 42.6667 32.2767V21.3133C42.6667 19.7225 40.9992 18.7066 39.5808 19.4158Z" stroke="#640EF1" stroke-width="3" stroke-linecap="round" stroke-linejoin="round"/>
</svg>
