<svg width="47" height="46" viewBox="0 0 47 46" fill="none" xmlns="http://www.w3.org/2000/svg">
<path d="M32.0292 27.6V16.2917C32.0292 15.2375 31.1667 14.375 30.1125 14.375H24.5541" stroke="#640EF1" stroke-width="3" stroke-linecap="round" stroke-linejoin="round"/>
<path d="M27.4292 11.5L23.9792 14.375L27.4292 17.25" stroke="#640EF1" stroke-width="3" stroke-linecap="round" stroke-linejoin="round"/>
<path d="M14.9708 19.55V27.6" stroke="#640EF1" stroke-width="3" stroke-linecap="round" stroke-linejoin="round"/>
<path d="M15.2584 18.975C17.3225 18.975 18.9959 17.3017 18.9959 15.2375C18.9959 13.1734 17.3225 11.5 15.2584 11.5C13.1942 11.5 11.5208 13.1734 11.5208 15.2375C11.5208 17.3017 13.1942 18.975 15.2584 18.975Z" stroke="#640EF1" stroke-width="3" stroke-linecap="round" stroke-linejoin="round"/>
<path d="M14.9708 34.5C16.8762 34.5 18.4208 32.9554 18.4208 31.05C18.4208 29.1446 16.8762 27.6 14.9708 27.6C13.0654 27.6 11.5208 29.1446 11.5208 31.05C11.5208 32.9554 13.0654 34.5 14.9708 34.5Z" stroke="#640EF1" stroke-width="3" stroke-linecap="round" stroke-linejoin="round"/>
<path d="M32.0292 34.5C33.9346 34.5 35.4792 32.9554 35.4792 31.05C35.4792 29.1446 33.9346 27.6 32.0292 27.6C30.1238 27.6 28.5792 29.1446 28.5792 31.05C28.5792 32.9554 30.1238 34.5 32.0292 34.5Z" stroke="#640EF1" stroke-width="3" stroke-linecap="round" stroke-linejoin="round"/>
<path d="M17.75 42.1666H29.25C38.8333 42.1666 42.6667 38.3333 42.6667 28.75V17.25C42.6667 7.66665 38.8333 3.83331 29.25 3.83331H17.75C8.16668 3.83331 4.33334 7.66665 4.33334 17.25V28.75C4.33334 38.3333 8.16668 42.1666 17.75 42.1666Z" stroke="#640EF1" stroke-width="3" stroke-linecap="round" stroke-linejoin="round"/>
</svg>
